<?xml version="1.0" encoding="iso-8859-1"?>
<!-- Generator: Adobe Illustrator 16.0.0, SVG Export Plug-In . SVG Version: 6.00 Build 0)  -->
<!DOCTYPE svg PUBLIC "-//W3C//DTD SVG 1.1//EN" "http://www.w3.org/Graphics/SVG/1.1/DTD/svg11.dtd">
<svg version="1.1" id="Capa_1" xmlns="http://www.w3.org/2000/svg" xmlns:xlink="http://www.w3.org/1999/xlink" x="0px" y="0px"
	 width="106.048px" height="106.048px" viewBox="0 0 106.048 106.048" style="enable-background:new 0 0 106.048 106.048;"
	 xml:space="preserve">
<g>
	<path style="fill:#010002;" d="M84.838,0H21.209C9.543,0,0,9.543,0,21.209v63.629c0,11.666,9.543,21.21,21.209,21.21h63.628
		c11.667,0,21.21-9.544,21.21-21.21V21.209C106.048,9.543,96.505,0,84.838,0z M21.802,89.006c-3.886-1.144-7.433-4.458-8.546-8.569
		l30.95-30.69l8.565,8.569L21.802,89.006z M72.229,57.58c-0.057-0.181-0.119-0.398-0.202-0.616
		c-0.104-0.274-0.217-0.544-0.342-0.817c-0.067-0.13-0.124-0.265-0.196-0.399c-0.182-0.321-0.404-0.61-0.632-0.891
		c-0.466-0.528-1.041-0.999-1.781-1.284c-4.738-1.874-9.414,1.207-11.692,3.086c-0.497,0.436-1.32,1.414-1.32,1.414l-11.402-11.2
		c0,0,3.774-3.738,5.67-5.603c7.079-7.017,1.712-16.019-6.586-19.19c-1.937-0.732-3.912-0.939-5.95-1.214
		c-0.481-0.06-1.527-0.075-2.535-0.086c-2.146-0.021-1.967-2.899,0.005-3.208c1.113-0.153,2.338-0.334,2.949-0.386
		c11.115-0.999,22.95,2.991,34.166,14.199c0.818,0.823,1.636,1.628,2.444,2.439c2.661,10.882,11.345,11.363,11.345,11.363
		c-4.562,4.523-9.14,9.06-13.701,13.585C72.441,58.389,72.338,57.994,72.229,57.58z M91.912,52.568l-11.703,11.65
		c-1.165,1.17-3.086,1.17-4.267,0l-2.424-2.418l15.887-15.972l2.507,2.48C93.092,49.492,93.092,51.396,91.912,52.568z"/>
</g>
<g>
</g>
<g>
</g>
<g>
</g>
<g>
</g>
<g>
</g>
<g>
</g>
<g>
</g>
<g>
</g>
<g>
</g>
<g>
</g>
<g>
</g>
<g>
</g>
<g>
</g>
<g>
</g>
<g>
</g>
</svg>
