<?xml version="1.0" encoding="iso-8859-1"?>
<!-- Generator: Adobe Illustrator 16.0.0, SVG Export Plug-In . SVG Version: 6.00 Build 0)  -->
<!DOCTYPE svg PUBLIC "-//W3C//DTD SVG 1.1//EN" "http://www.w3.org/Graphics/SVG/1.1/DTD/svg11.dtd">
<svg version="1.1" id="Capa_1" xmlns="http://www.w3.org/2000/svg" xmlns:xlink="http://www.w3.org/1999/xlink" x="0px" y="0px"
	 width="96.785px" height="96.785px" viewBox="0 0 96.785 96.785" style="enable-background:new 0 0 96.785 96.785;"
	 xml:space="preserve">
<g>
	<path d="M96.2,36.482l-7.007-7.007c-0.78-0.781-2.047-0.781-2.827,0l-1.79,1.79l-20.83-20.831c-0.488-0.489-1.196-0.693-1.87-0.533
		c-0.573,0.134-1.759,0.359-3.255,0.359c-2.494,0-6.162-0.624-9.476-3.594c-0.79-0.708-1.997-0.676-2.749,0.075l-4.1,4.099
		c-0.375,0.375-0.586,0.883-0.586,1.414c0,0.53,0.211,1.039,0.586,1.414l11.892,11.892L0.585,79.164
		c-0.781,0.781-0.781,2.047,0,2.828l8.051,8.051c0.391,0.392,0.902,0.586,1.414,0.586c0.512,0,1.023-0.194,1.414-0.586
		l53.604-53.602l7.166,7.166l-1.788,1.79c-0.781,0.781-0.781,2.047,0,2.828l7.006,7.006c0.75,0.75,2.078,0.75,2.828,0l15.92-15.92
		C96.98,38.53,96.98,37.264,96.2,36.482z"/>
</g>
<g>
</g>
<g>
</g>
<g>
</g>
<g>
</g>
<g>
</g>
<g>
</g>
<g>
</g>
<g>
</g>
<g>
</g>
<g>
</g>
<g>
</g>
<g>
</g>
<g>
</g>
<g>
</g>
<g>
</g>
</svg>
