<?xml version="1.0" ?><svg viewBox="0 0 20.719 22.369" xmlns="http://www.w3.org/2000/svg"><g data-name="Layer 2" id="Layer_2"><g data-name="Layer 1" id="Layer_1-2"><path d="M18.39,15.029c.229,3.125.584,4.571-3.53,4.591a.724.724,0,0,0-.819.768v1.648a.34.34,0,0,1-.68,0V20.388a1.382,1.382,0,0,1,1.5-1.448c1.615,0,2.765-.342,2.862-.852a13.255,13.255,0,0,0-.036-3.232A.339.339,0,0,1,17.9,14.5a15.431,15.431,0,0,0,1.833-.871c.529-.326.257-.633.011-1a8.175,8.175,0,0,1-2.006-3.465c-.468-11.308-16.58-11.3-17.047,0-.179,3,2.125,5.563,3.343,8.009a15.95,15.95,0,0,1,.752,4.868.34.34,0,0,1-.68.007,15.654,15.654,0,0,0-.691-4.594c-1.3-2.509-3.594-5.192-3.4-8.29.5-12.185,17.852-12.217,18.407-.042a8.689,8.689,0,0,0,1.844,3.069C21.645,13.859,19.551,14.509,18.39,15.029Zm-9.174.131c-7.942-.28-7.944-11.722,0-12a6,6,0,1,1,0,12Zm-4.1-2.613A5.292,5.292,0,0,0,6.321,9.5H3.911A5.289,5.289,0,0,0,5.115,12.547Zm8.2-6.778a5.286,5.286,0,0,0-1.207,3.049h2.411A5.3,5.3,0,0,0,13.318,5.769Zm0,6.775a5.289,5.289,0,0,0,1.2-3.047H12.111A5.3,5.3,0,0,0,13.319,12.544ZM11.432,9.5H9.556v4.967a5.3,5.3,0,0,0,3.291-1.425A5.964,5.964,0,0,1,11.432,9.5Zm1.415-4.22A5.3,5.3,0,0,0,9.556,3.852V8.818h1.876A5.963,5.963,0,0,1,12.847,5.277Zm-7.733.492a5.3,5.3,0,0,0-1.2,3.049h2.41A5.293,5.293,0,0,0,5.114,5.769ZM7,8.818H8.877V3.852A5.3,5.3,0,0,0,5.586,5.277,5.958,5.958,0,0,1,7,8.818Zm-1.417,4.22a5.3,5.3,0,0,0,3.293,1.426V9.5H7A5.972,5.972,0,0,1,5.584,13.038Zm10.251,3.439L16.29,14.5l-1.944.6.492.457a8.535,8.535,0,0,1-8.815,1.514.339.339,0,1,0-.254.629,9.213,9.213,0,0,0,9.569-1.677Z" data-name="global thinking" id="global_thinking"/></g></g></svg>