<?xml version="1.0" encoding="utf-8"?>
<!-- Svg Vector Icons : http://www.onlinewebfonts.com/icon -->
<!DOCTYPE svg PUBLIC "-//W3C//DTD SVG 1.1//EN" "http://www.w3.org/Graphics/SVG/1.1/DTD/svg11.dtd">
<svg version="1.1" xmlns="http://www.w3.org/2000/svg" xmlns:xlink="http://www.w3.org/1999/xlink" x="0px" y="0px" viewBox="0 0 1000 1000" enable-background="new 0 0 1000 1000" xml:space="preserve">
<metadata> Svg Vector Icons : http://www.onlinewebfonts.com/icon </metadata>
<g><path d="M693.2,570.2c-13.8,10.1-28.4,19.1-43.7,27c163.1,57.3,283.3,205.8,299.3,384.3H990C974.7,796.2,856.8,640.1,693.2,570.2z M10,981.5h41.1c16.1-178.5,136.2-327,299.4-384.3c-15.3-7.9-29.9-16.9-43.7-27C143.2,640.1,25.3,796.2,10,981.5z M786.8,305.4C786.8,147,658.4,18.5,500,18.5c-158.4,0-286.8,128.4-286.8,286.8c0,158.4,128.4,286.8,286.8,286.8C658.4,592.2,786.8,463.8,786.8,305.4z M500,551.2c-135.8,0-245.9-110.1-245.9-245.9c0-135.8,110.1-245.9,245.9-245.9c135.8,0,245.9,110.1,245.9,245.9C745.8,441.1,635.8,551.2,500,551.2z"/></g>
</svg>